<svg width="67" height="66" viewBox="0 0 67 66" fill="none" xmlns="http://www.w3.org/2000/svg">
<g filter="url(#filter0_d_8_47)">
<rect x="12.5" y="8" width="42" height="42" rx="8" fill="white"/>
<g clip-path="url(#clip0_8_47)">
<path d="M28.9508 14.9867C25.9533 16.0266 23.3683 18.0002 21.5754 20.6178C19.7826 23.2354 18.8764 26.3589 18.9899 29.5296C19.1035 32.7003 20.2308 35.751 22.2063 38.2336C24.1818 40.7162 26.9014 42.4999 29.9656 43.3227C32.4498 43.9637 35.0525 43.9918 37.55 43.4047C39.8124 42.8965 41.9041 41.8095 43.6203 40.25C45.4064 38.5774 46.7029 36.4496 47.3703 34.0953C48.0955 31.5351 48.2246 28.8428 47.7476 26.225H33.7976V32.0117H41.8765C41.7151 32.9347 41.3691 33.8155 40.8592 34.6017C40.3494 35.3878 39.6862 36.0629 38.9093 36.5867C37.9229 37.2395 36.8108 37.6787 35.6445 37.8758C34.4748 38.0933 33.2751 38.0933 32.1054 37.8758C30.9199 37.631 29.7983 37.1416 28.8125 36.4391C27.2284 35.3178 26.0391 33.7248 25.414 31.8875C24.7786 30.0157 24.7786 27.9866 25.414 26.1149C25.8589 24.8029 26.5944 23.6083 27.5656 22.6203C28.677 21.4689 30.084 20.6459 31.6324 20.2416C33.1807 19.8373 34.8105 19.8672 36.3429 20.3281C37.5401 20.6955 38.6349 21.3375 39.5398 22.2031C40.4508 21.2969 41.3601 20.3883 42.2679 19.4774C42.7367 18.9875 43.2476 18.5211 43.7093 18.0195C42.3278 16.734 40.7062 15.7337 38.9375 15.0758C35.7165 13.9062 32.1921 13.8748 28.9508 14.9867Z" fill="white"/>
<path d="M28.9508 14.9867C32.1918 13.874 35.7162 13.9046 38.9375 15.0734C40.7065 15.7358 42.3274 16.741 43.707 18.0312C43.2383 18.5328 42.7437 19.0016 42.2656 19.4891C41.3562 20.3969 40.4476 21.3016 39.5398 22.2031C38.6349 21.3375 37.5401 20.6954 36.3429 20.3281C34.811 19.8656 33.1813 19.8339 31.6325 20.2366C30.0838 20.6393 28.6759 21.4608 27.5633 22.6109C26.5921 23.5989 25.8566 24.7935 25.4117 26.1055L20.5531 22.3437C22.2922 18.8951 25.3033 16.2571 28.9508 14.9867Z" fill="#E33629"/>
<path d="M19.2641 26.0703C19.525 24.776 19.9586 23.5226 20.5531 22.3438L25.4117 26.1148C24.7763 27.9866 24.7763 30.0157 25.4117 31.8875C23.793 33.1375 22.1734 34.3938 20.5531 35.6563C19.0652 32.6945 18.6114 29.3199 19.2641 26.0703Z" fill="#F8BD00"/>
<path d="M33.7977 26.2227H47.7477C48.2246 28.8405 48.0955 31.5328 47.3703 34.093C46.7029 36.4472 45.4065 38.575 43.6203 40.2477C42.0524 39.0242 40.4774 37.8102 38.9094 36.5867C39.6868 36.0624 40.3503 35.3865 40.8601 34.5995C41.37 33.8126 41.7157 32.9308 41.8766 32.007H33.7977C33.7953 30.0805 33.7977 28.1516 33.7977 26.2227Z" fill="#587DBD"/>
<path d="M20.5508 35.6563C22.1711 34.4063 23.7906 33.15 25.4094 31.8875C26.0356 33.7255 27.2267 35.3185 28.8125 36.4391C29.8014 37.1384 30.9254 37.6237 32.1125 37.8641C33.2822 38.0816 34.4819 38.0816 35.6516 37.8641C36.8179 37.6669 37.93 37.2278 38.9164 36.575C40.4844 37.7984 42.0594 39.0125 43.6273 40.236C41.9115 41.7962 39.8197 42.8841 37.557 43.393C35.0596 43.9801 32.4569 43.952 29.9727 43.3109C28.0079 42.7864 26.1727 41.8616 24.582 40.5945C22.8986 39.2577 21.5235 37.5733 20.5508 35.6563Z" fill="#319F43"/>
</g>
</g>
<defs>
<filter id="filter0_d_8_47" x="0.5" y="0" width="66" height="66" filterUnits="userSpaceOnUse" color-interpolation-filters="sRGB">
<feFlood flood-opacity="0" result="BackgroundImageFix"/>
<feColorMatrix in="SourceAlpha" type="matrix" values="0 0 0 0 0 0 0 0 0 0 0 0 0 0 0 0 0 0 127 0" result="hardAlpha"/>
<feOffset dy="4"/>
<feGaussianBlur stdDeviation="6"/>
<feComposite in2="hardAlpha" operator="out"/>
<feColorMatrix type="matrix" values="0 0 0 0 0 0 0 0 0 0 0 0 0 0 0 0 0 0 0.12 0"/>
<feBlend mode="normal" in2="BackgroundImageFix" result="effect1_dropShadow_8_47"/>
<feBlend mode="normal" in="SourceGraphic" in2="effect1_dropShadow_8_47" result="shape"/>
</filter>
<clipPath id="clip0_8_47">
<rect width="30" height="30" fill="white" transform="translate(18.5 14)"/>
</clipPath>
</defs>
</svg>
